<svg width="14" height="12" viewBox="0 0 14 12" fill="none" xmlns="http://www.w3.org/2000/svg">
<path d="M7.00878 6.58419L2.23206 11.2577C1.90191 11.5808 1.36804 11.5808 1.04139 11.2577L0.247617 10.4811C-0.0825389 10.1581 -0.0825389 9.63574 0.247617 9.31615L3.63347 6.00344L0.247617 2.69072C-0.0825389 2.3677 -0.0825389 1.84536 0.247617 1.52577L1.03788 0.742268C1.36804 0.419244 1.90191 0.419244 2.22855 0.742268L7.00527 5.41581C7.33894 5.73883 7.33894 6.26117 7.00878 6.58419ZM13.7524 5.41581L8.97566 0.742268C8.64551 0.419244 8.11164 0.419244 7.785 0.742268L6.99122 1.5189C6.66106 1.84192 6.66106 2.36426 6.99122 2.68385L10.3771 5.99656L6.99122 9.30928C6.66106 9.6323 6.66106 10.1546 6.99122 10.4742L7.785 11.2509C8.11515 11.5739 8.64902 11.5739 8.97566 11.2509L13.7524 6.57732C14.0825 6.26117 14.0825 5.73883 13.7524 5.41581Z" fill="currentColor"/>
</svg>
