<svg width="28" height="28" viewBox="0 0 28 28" fill="none" xmlns="http://www.w3.org/2000/svg">
<path d="M14.2227 3.94257C16.1775 3.94257 17.7616 5.52665 17.7616 7.48146C17.7616 9.43628 16.1775 11.0204 14.2227 11.0204C12.2679 11.0204 10.6838 9.43628 10.6838 7.48146C10.6838 5.52665 12.2679 3.94257 14.2227 3.94257ZM14.2227 19.1092C19.2277 19.1092 24.5023 21.5696 24.5023 22.6481V24.5018H3.94306V22.6481C3.94306 21.5696 9.21769 19.1092 14.2227 19.1092ZM14.2227 0.740723C10.4984 0.740723 7.48195 3.7572 7.48195 7.48146C7.48195 11.2057 10.4984 14.2222 14.2227 14.2222C17.947 14.2222 20.9634 11.2057 20.9634 7.48146C20.9634 3.7572 17.947 0.740723 14.2227 0.740723ZM14.2227 15.9074C9.72325 15.9074 0.741211 18.1655 0.741211 22.6481V27.7037H27.7042V22.6481C27.7042 18.1655 18.7221 15.9074 14.2227 15.9074Z" fill="currentColor"/>
</svg>
