<svg width="29" height="30" viewBox="0 0 29 30" fill="none" xmlns="http://www.w3.org/2000/svg">
<path d="M3.42253 2.44725L4.456 1.41377C5.11411 0.755668 6.18111 0.755669 6.83921 1.41378L11.1967 5.7713C11.8548 6.42941 11.8548 7.49641 11.1967 8.15451L8.1762 11.1751C7.67252 11.6787 7.54766 12.4482 7.86621 13.0853C9.70771 16.7683 12.6941 19.7547 16.3771 21.5962C17.0142 21.9147 17.7836 21.7898 18.2873 21.2862L21.3079 18.2656C21.966 17.6075 23.033 17.6075 23.6911 18.2656L28.0486 22.6232C28.7067 23.2813 28.7067 24.3483 28.0486 25.0064L27.0151 26.0398C23.4571 29.5979 17.8243 29.9982 13.7988 26.9791L11.7624 25.4518C8.82425 23.2482 6.2142 20.6381 4.01057 17.7L2.48327 15.6636C-0.535808 11.6381 -0.135491 6.00527 3.42253 2.44725Z" fill="currentColor"/>
</svg>
