<svg width="37" height="30" viewBox="0 0 37 30" fill="none" xmlns="http://www.w3.org/2000/svg">
<path fill-rule="evenodd" clip-rule="evenodd" d="M3.37616 13.1811C12.8758 9.04226 19.2103 6.31369 22.3799 4.99538C31.4295 1.23134 33.3099 0.577485 34.5355 0.555894C34.8051 0.551146 35.4078 0.617952 35.7983 0.934756C36.1279 1.20226 36.2186 1.56362 36.262 1.81724C36.3054 2.07086 36.3595 2.64862 36.3165 3.10006C35.8261 8.25275 33.7042 20.757 32.6246 26.5281C32.1678 28.97 31.2684 29.7888 30.3976 29.8689C28.5053 30.0431 27.0683 28.6183 25.2355 27.4169C22.3674 25.5369 20.7472 24.3665 17.9633 22.532C14.746 20.4118 16.8316 19.2465 18.6651 17.3422C19.145 16.8438 27.4828 9.25993 27.6441 8.57196C27.6643 8.48591 27.683 8.16519 27.4925 7.99583C27.302 7.82648 27.0208 7.88439 26.8178 7.93045C26.5302 7.99573 21.9484 11.0241 13.0727 17.0155C11.7722 17.9085 10.5942 18.3436 9.53879 18.3208C8.37528 18.2957 6.13717 17.663 4.47336 17.1221C2.43263 16.4588 0.810699 16.108 0.951933 14.9814C1.0255 14.3946 1.83357 13.7945 3.37616 13.1811Z" fill="currentColor"/>
</svg>
